<?xml version="1.0"?>
<svg xmlns="http://www.w3.org/2000/svg" xmlns:xlink="http://www.w3.org/1999/xlink" version="1.1" id="Layer_1" x="0px" y="0px" viewBox="0 0 511 511" style="enable-background:new 0 0 511 511;" xml:space="preserve" width="512px" height="512px" class=""><g><g>
	<path d="M476.98,272l-57.684-137H448v-15H294.777c-3.514-19-19.811-32.25-39.027-32.25c-5.888,0-10.75,1.055-16.75,3.375V15h33v64   h15V0h-63v103h0.658c-3.658,4.765-6.253,10-7.434,17H64v15h28.704L35.02,272H16v7c0,48.248,39.252,87.5,87.5,87.5   S191,327.248,191,279v-7h-18.02l-57.684-137h101.928c1.181,6,3.777,11.235,7.434,16H224v248h15V162.875   c6,2.32,10.612,3.625,16.5,3.625s11.5-1.305,16.5-3.625V416h-80v32h-32v63h191v-63h-32v-32h-32V151h0.342   c3.658-4.765,6.253-10,7.434-16h101.928L339.02,272H320v7c0,48.248,39.252,87.5,87.5,87.5S495,327.248,495,279v-7H476.98z    M176.115,287c-3.766,36-34.671,65-72.115,65s-68.349-29-72.115-65H176.115z M156.704,272H51.296L104,146.827L156.704,272z    M256,151.5c-13.509,0-24.5-10.991-24.5-24.5s10.991-24.5,24.5-24.5c13.51,0,24.5,10.991,24.5,24.5S269.51,151.5,256,151.5z    M319.5,463H336v33H175v-33h17.5H319.5z M304,431v17h-97v-17H304z M408,146.827L460.704,272H355.296L408,146.827z M408,352   c-37.444,0-68.35-29-72.115-65h144.23C476.35,323,445.444,352,408,352z" data-original="#000000" class="active-path" data-old_color="#F4F4F4" fill="#FFFFFF"/>
	<rect x="248" y="120" width="16" height="15" data-original="#000000" class="active-path" data-old_color="#F4F4F4" fill="#FFFFFF"/>
</g></g> </svg>
