<?xml version="1.0"?>
<svg xmlns="http://www.w3.org/2000/svg" id="Layer_3" enable-background="new 0 0 64 64" height="512px" viewBox="0 0 64 64" width="512px"><g><path d="m23 57h10v2h-10z" data-original="#000000" class="active-path" data-old_color="#FDFBFB" fill="#FFFFFF"/><path d="m35 57h2v2h-2z" data-original="#000000" class="active-path" data-old_color="#FDFBFB" fill="#FFFFFF"/><path d="m19 57h2v2h-2z" data-original="#000000" class="active-path" data-old_color="#FDFBFB" fill="#FFFFFF"/><path d="m58.862 17.615c.092-.544.138-1.085.138-1.615 0-5.514-4.486-10-10-10-.272 0-.538.024-.806.046-2.85-3.204-6.89-5.046-11.194-5.046-8.271 0-15 6.729-15 15 0 .427.023.854.059 1.28-1.934.559-3.52 1.931-4.374 3.72h-9.685c-2.757 0-5 2.243-5 5v27h-2v5c0 2.757 2.243 5 5 5h44c2.757 0 5-2.243 5-5v-5h-2v-22h3c3.86 0 7-3.14 7-7 0-2.763-1.662-5.271-4.138-6.385zm-34.862 13.385h23v18h-38v-22h8.685c1.126 2.361 3.53 4 6.315 4zm29 27c0 1.654-1.346 3-3 3h-44c-1.654 0-3-1.346-3-3v-3h50zm-2-5h-46v-27c0-1.654 1.346-3 3-3h9.08c-.047.328-.08.66-.08 1s.033.672.08 1h-8.08c-1.103 0-2 .897-2 2v22c0 1.103.897 2 2 2h38c1.103 0 2-.897 2-2v-18h2zm5-24h-32c-2.757 0-5-2.243-5-5s2.243-5 5-5c.88 0 1.744.231 2.499.668l1.002-1.73c-1.048-.607-2.244-.928-3.461-.935-.026-.334-.04-.669-.04-1.003 0-7.168 5.832-13 13-13 3.327 0 6.476 1.268 8.871 3.511-.447.148-.888.317-1.316.529l.89 1.791c1.11-.551 2.306-.831 3.555-.831 4.411 0 8 3.589 8 8 0 .649-.088 1.322-.263 2l-.241.935.925.274c2.107.623 3.579 2.594 3.579 4.791 0 2.757-2.243 5-5 5z" data-original="#000000" class="active-path" data-old_color="#FDFBFB" fill="#FFFFFF"/><path d="m34.293 15.293-1.099 1.099c.729-3.086 3.5-5.392 6.806-5.392 2.491 0 4.814 1.341 6.063 3.5l1.731-1.002c-1.605-2.774-4.591-4.498-7.794-4.498-4.517 0-8.257 3.349-8.894 7.692l-1.399-1.399-1.414 1.414 3.707 3.707 3.707-3.707z" data-original="#000000" class="active-path" data-old_color="#FDFBFB" fill="#FFFFFF"/><path d="m44.293 19.293 1.414 1.414 1.099-1.099c-.729 3.086-3.5 5.392-6.806 5.392-2.49 0-4.813-1.341-6.063-3.499l-1.73 1.002c1.605 2.774 4.591 4.497 7.793 4.497 4.517 0 8.257-3.349 8.894-7.692l1.399 1.399 1.414-1.414-3.707-3.707z" data-original="#000000" class="active-path" data-old_color="#FDFBFB" fill="#FFFFFF"/><path d="m30 25h2v2h-2z" data-original="#000000" class="active-path" data-old_color="#FDFBFB" fill="#FFFFFF"/><path d="m23 24h-2c0 1.654 1.346 3 3 3h4v-2h-4c-.551 0-1-.449-1-1z" data-original="#000000" class="active-path" data-old_color="#FDFBFB" fill="#FFFFFF"/><path d="m33 37h-4v-2h-4v-2h-4v-2h-4v-2h-6v18h22zm-6 0v8h-2v-8zm-4-2v10h-2v-10zm-8 10h-2v-14h2zm2-12h2v12h-2zm14 12h-2v-6h2z" data-original="#000000" class="active-path" data-old_color="#FDFBFB" fill="#FFFFFF"/><path d="m35 33h10v2h-10z" data-original="#000000" class="active-path" data-old_color="#FDFBFB" fill="#FFFFFF"/><path d="m35 37h10v2h-10z" data-original="#000000" class="active-path" data-old_color="#FDFBFB" fill="#FFFFFF"/><path d="m35 41h10v2h-10z" data-original="#000000" class="active-path" data-old_color="#FDFBFB" fill="#FFFFFF"/><path d="m35 45h10v2h-10z" data-original="#000000" class="active-path" data-old_color="#FDFBFB" fill="#FFFFFF"/><path d="m37 7v-2c-.741 0-1.48.074-2.199.22l.398 1.96c.588-.119 1.194-.18 1.801-.18z" data-original="#000000" class="active-path" data-old_color="#FDFBFB" fill="#FFFFFF"/><path d="m34.3 7.412-.6-1.908c-3.429 1.077-6.119 3.767-7.196 7.196l1.908.6c.881-2.806 3.082-5.007 5.888-5.888z" data-original="#000000" class="active-path" data-old_color="#FDFBFB" fill="#FFFFFF"/></g> </svg>
